<svg 
 xmlns="http://www.w3.org/2000/svg"
 xmlns:xlink="http://www.w3.org/1999/xlink"
 width="54px" height="44px">
<path fill-rule="evenodd"  fill="rgb(70, 70, 70)"
 d="M11.284,37.760 C9.867,39.186 9.867,41.499 11.284,42.927 C12.701,44.353 14.999,44.353 16.417,42.927 C17.834,41.500 17.834,39.187 16.417,37.760 C14.999,36.334 12.701,36.334 11.284,37.760 ZM53.531,0.523 L53.479,0.471 C52.785,-0.228 51.564,-0.132 50.753,0.684 L36.986,14.538 L27.896,5.389 L2.251,31.200 L1.071,30.012 L26.716,4.201 C25.298,2.783 23.006,2.786 21.592,4.210 L1.061,24.872 C-0.356,26.299 -0.356,28.612 1.061,30.039 L9.244,38.273 C9.488,37.722 9.834,37.205 10.283,36.753 C12.253,34.770 15.448,34.770 17.417,36.753 C17.883,37.221 18.237,37.760 18.482,38.333 L39.555,17.124 L39.551,17.121 L53.318,3.266 C54.131,2.449 54.225,1.221 53.531,0.523 Z"/>
</svg>