<svg 
 xmlns="http://www.w3.org/2000/svg"
 xmlns:xlink="http://www.w3.org/1999/xlink"
 width="58px" height="47px">
<path fill-rule="evenodd"  fill="rgb(70, 70, 70)"
 d="M57.995,16.561 C58.000,16.632 57.969,16.703 57.920,16.754 C57.867,16.805 57.795,16.826 57.723,16.826 C57.311,16.796 56.927,16.618 56.637,16.325 L55.067,14.758 L49.705,15.401 L48.994,14.686 L53.137,12.836 L52.064,11.767 C51.970,11.672 51.898,11.547 51.854,11.415 L50.064,11.775 L49.490,11.201 L51.494,10.349 L52.350,8.351 L52.925,8.925 L52.564,10.707 C52.697,10.749 52.823,10.821 52.917,10.915 L53.990,11.982 L55.844,7.856 L56.563,8.567 L55.916,13.905 L57.491,15.473 C57.785,15.764 57.965,16.146 57.995,16.561 ZM47.510,6.874 L47.920,6.360 C48.611,6.910 49.284,7.491 49.919,8.093 L49.470,8.567 C48.847,7.978 48.190,7.409 47.510,6.874 ZM43.180,4.038 L43.487,3.462 C44.270,3.878 45.034,4.332 45.769,4.812 L45.411,5.357 C44.691,4.888 43.940,4.443 43.180,4.038 ZM29.630,46.994 C19.044,46.994 10.433,38.411 10.433,27.863 C10.433,17.314 19.044,8.732 29.630,8.732 C40.215,8.732 48.827,17.314 48.827,27.863 C48.827,38.411 40.215,46.994 29.630,46.994 ZM45.070,29.943 C44.435,29.337 43.775,29.112 42.906,29.112 C42.446,29.112 40.933,28.873 41.522,29.694 C41.631,29.846 41.789,29.886 41.647,30.028 C41.473,30.202 41.299,30.375 41.123,30.551 C40.771,30.902 40.416,31.255 40.063,31.607 C39.834,31.379 38.341,29.753 38.393,30.775 C38.142,30.273 37.925,29.496 37.539,29.092 C37.171,28.707 36.831,28.209 36.744,27.676 C36.690,27.353 36.758,27.049 37.032,27.400 C37.238,27.663 37.399,27.967 37.551,28.264 C37.574,28.308 38.021,28.125 38.074,28.108 C38.737,27.888 39.400,27.668 40.063,27.448 C39.785,26.893 39.506,26.338 39.228,25.784 C38.291,26.678 37.026,26.483 36.060,27.294 C35.778,27.532 35.458,27.448 35.091,27.448 C35.014,27.448 35.055,25.930 35.055,25.784 C35.055,25.566 35.179,25.047 34.977,24.885 C34.480,24.487 33.847,24.492 33.385,24.952 C32.958,25.379 32.581,25.976 32.551,26.597 C32.550,26.643 31.817,26.616 31.716,26.616 C31.943,26.390 32.171,26.163 32.398,25.935 C32.638,25.698 32.417,25.650 32.191,25.425 C32.068,25.302 31.795,24.875 31.644,25.025 C31.397,25.272 31.148,25.519 30.902,25.764 C30.791,25.875 30.882,26.419 30.882,26.580 C30.882,26.665 30.405,26.667 30.328,26.678 C29.678,26.749 29.027,26.821 28.379,26.893 C28.379,26.281 28.320,26.219 28.687,25.843 C28.993,25.528 29.127,25.077 29.182,24.652 C29.230,24.273 29.132,23.929 29.494,23.701 C30.065,23.342 30.877,23.314 31.532,23.292 C31.622,23.289 31.708,23.318 31.792,23.363 C31.791,23.363 31.790,23.362 31.790,23.362 C31.636,23.208 32.170,22.837 32.301,22.707 C32.761,22.250 33.410,22.030 33.988,21.742 C34.472,21.500 34.221,20.483 34.221,19.983 C34.221,19.939 35.913,19.962 36.057,19.962 C36.608,19.962 37.290,20.097 37.793,19.845 C38.297,19.594 38.881,19.390 39.332,19.053 C39.990,18.561 40.957,17.452 41.857,16.478 C38.799,13.218 34.451,11.176 29.631,11.176 C24.334,11.176 19.608,13.641 16.538,17.477 C16.681,17.511 16.812,17.587 16.943,17.756 C17.178,18.056 18.036,19.531 17.167,19.545 C16.419,19.557 16.865,20.538 16.109,20.754 C15.917,20.809 15.858,20.726 15.858,20.936 C15.858,21.443 15.858,21.951 15.858,22.457 C15.858,22.757 15.804,22.833 16.073,22.881 C16.463,22.953 16.675,23.354 17.018,23.518 C17.648,23.818 18.444,23.610 19.055,23.353 C19.430,23.195 19.001,22.630 19.274,22.385 C19.760,21.950 20.732,21.294 21.380,21.778 C21.676,21.999 21.720,22.505 21.896,22.826 C22.307,23.573 22.762,24.346 23.370,24.952 C23.924,25.504 23.266,25.732 22.758,25.773 C22.290,25.811 22.026,26.381 21.853,26.784 C21.732,27.063 21.815,27.683 21.466,27.791 C21.207,27.872 20.895,27.778 20.647,27.696 C20.174,27.543 19.964,27.448 19.461,27.448 C18.849,27.448 18.415,28.151 17.755,28.260 C17.199,28.353 16.717,28.439 16.693,29.111 C16.136,28.835 15.581,28.557 15.024,28.280 C15.024,28.736 15.024,29.194 15.024,29.651 C15.024,30.045 14.837,30.130 14.550,30.416 C14.222,30.741 14.208,30.775 13.756,30.775 C13.620,30.775 13.387,30.806 13.153,30.824 C13.938,35.165 16.410,38.929 19.870,41.411 C19.996,40.930 20.139,40.450 20.252,39.965 C20.355,39.527 20.493,38.984 20.359,38.539 C20.253,38.185 19.768,38.237 19.518,37.980 C18.925,37.370 18.688,36.524 18.362,35.765 C18.099,35.151 17.758,34.563 17.458,33.964 C17.152,33.356 16.969,32.576 16.344,32.264 C15.925,32.055 15.506,31.846 15.087,31.638 C14.919,31.554 15.024,30.958 15.024,30.775 C16.158,30.775 17.293,30.775 18.428,30.775 C18.941,30.775 19.454,30.775 19.967,30.775 C20.376,30.775 20.785,30.424 21.224,30.406 C21.671,30.388 21.659,30.648 21.721,31.002 C21.816,31.542 22.219,32.023 22.704,32.269 C22.983,32.410 23.503,32.322 23.664,32.622 C23.805,32.887 23.786,33.240 23.787,33.529 C23.790,34.067 23.647,34.933 24.382,34.933 C25.157,34.933 25.933,34.933 26.709,34.933 C26.709,35.639 26.320,36.983 25.802,37.500 C25.595,37.706 25.155,37.994 25.040,38.259 C24.888,38.611 25.141,39.095 24.962,39.472 C24.689,40.048 23.811,40.315 23.370,40.755 C22.917,41.205 21.862,41.532 21.721,42.212 C21.697,42.324 21.674,42.429 21.650,42.533 C24.024,43.820 26.742,44.552 29.630,44.552 C37.429,44.552 44.000,39.211 45.854,32.007 C45.784,31.656 45.628,31.332 45.279,30.982 C45.094,30.796 44.264,29.901 45.070,29.943 ZM39.457,34.082 C38.846,34.184 38.703,34.347 39.162,34.860 C39.539,35.282 39.633,36.381 39.596,36.914 C39.549,37.571 39.059,37.181 38.851,37.580 C38.764,37.743 38.859,37.944 38.773,38.108 C38.647,38.349 38.229,38.233 38.017,38.337 C37.275,38.702 37.712,41.586 37.478,41.586 C37.007,41.586 36.535,41.586 36.064,41.586 C35.792,41.586 35.683,41.380 35.491,41.189 C34.988,40.687 34.222,40.241 34.222,39.508 C34.222,38.794 33.980,38.108 33.826,37.413 C33.694,36.830 33.566,36.244 33.468,35.654 C33.425,35.391 33.492,34.789 33.371,34.572 C33.481,34.772 32.337,34.933 32.275,34.933 C31.753,34.933 31.170,35.003 30.654,34.913 C29.209,34.661 29.508,33.231 28.736,32.389 C28.014,31.601 27.189,31.054 27.849,29.959 C28.219,29.343 28.709,28.789 29.213,28.279 C30.492,28.279 31.771,28.279 33.050,28.279 C33.833,28.279 34.614,28.279 35.396,28.279 C36.019,28.279 35.890,28.317 35.890,28.981 C35.890,29.417 36.862,30.079 37.160,30.377 C37.569,30.784 37.751,31.154 38.013,31.679 C38.349,32.349 38.350,32.424 39.043,32.654 C39.662,32.859 40.279,33.065 40.898,33.270 C40.504,33.645 40.002,33.991 39.457,34.082 ZM26.500,18.318 C26.151,18.387 25.953,18.662 25.699,18.880 C25.364,19.167 24.973,19.130 24.557,19.130 C24.014,19.130 24.205,19.344 24.205,19.878 C24.205,20.240 24.326,20.672 24.059,20.939 C23.653,21.344 23.247,21.749 22.840,22.154 C22.436,22.556 22.471,22.393 22.062,21.985 C21.649,21.574 21.701,21.471 21.701,20.876 C21.701,20.470 21.766,20.092 21.584,19.728 C21.280,19.123 20.833,17.466 20.031,17.466 C20.611,16.888 21.794,16.016 22.079,15.290 C22.126,15.170 22.063,14.989 22.226,14.975 C22.604,14.945 22.991,14.971 23.370,14.971 C24.163,14.971 24.663,15.012 25.326,15.471 C25.816,15.811 26.274,16.206 26.698,16.624 C26.897,16.820 27.477,17.208 27.543,17.466 C27.706,18.103 26.887,18.242 26.500,18.318 ZM29.770,22.179 C29.954,21.994 30.141,21.810 30.325,21.625 C30.325,21.785 30.419,22.687 30.303,22.746 C29.940,22.926 29.577,23.108 29.213,23.289 C29.228,23.019 29.240,22.751 29.254,22.481 C29.265,22.262 29.580,22.249 29.770,22.179 ZM32.551,19.927 C32.551,19.997 32.551,20.067 32.551,20.136 C32.664,19.674 32.971,19.070 33.184,18.672 C33.217,18.478 33.249,18.285 33.281,18.091 C33.293,18.209 33.298,18.324 33.309,18.441 C33.342,18.381 33.370,18.330 33.385,18.298 C33.385,18.841 33.385,19.384 33.385,19.926 C33.385,19.966 33.385,20.006 33.385,20.045 C33.385,20.270 33.483,20.696 33.313,20.866 C33.058,21.120 32.805,21.372 32.551,21.625 C32.635,21.346 32.709,21.066 32.775,20.787 C32.663,20.776 32.591,20.727 32.551,20.647 C32.551,20.652 32.551,20.658 32.551,20.663 C32.551,20.909 32.188,20.793 31.981,20.793 C31.093,20.793 32.383,18.634 32.551,18.299 C32.551,18.841 32.551,19.385 32.551,19.927 ZM38.410,2.025 L38.610,1.403 C39.453,1.673 40.290,1.985 41.097,2.323 L40.841,2.926 C40.052,2.592 39.235,2.288 38.410,2.025 ZM33.356,0.898 L33.443,0.249 C34.321,0.362 35.198,0.517 36.051,0.709 L35.909,1.347 C35.073,1.157 34.216,1.008 33.356,0.898 ZM28.180,0.683 L28.149,0.030 C29.033,-0.011 29.930,-0.011 30.801,0.024 L30.776,0.678 C29.911,0.642 29.041,0.642 28.180,0.683 ZM22.900,0.749 C23.757,0.550 24.633,0.391 25.504,0.270 L25.595,0.918 C24.743,1.035 23.886,1.193 23.048,1.385 L22.900,0.749 ZM17.867,2.396 C18.667,2.051 19.501,1.735 20.345,1.459 L20.550,2.078 C19.726,2.351 18.909,2.657 18.126,2.996 L17.867,2.396 ZM13.210,4.914 C13.950,4.424 14.714,3.965 15.481,3.552 L15.795,4.123 C15.043,4.531 14.297,4.977 13.575,5.455 L13.210,4.914 ZM9.079,8.215 C9.715,7.608 10.386,7.020 11.070,6.476 L11.480,6.985 C10.813,7.516 10.156,8.092 9.533,8.690 L9.079,8.215 ZM5.603,12.201 C6.118,11.491 6.673,10.793 7.252,10.132 L7.747,10.561 C7.182,11.209 6.639,11.889 6.134,12.584 L5.603,12.201 ZM5.670,46.820 C5.153,46.113 4.660,45.374 4.206,44.619 L4.766,44.282 C5.212,45.023 5.695,45.745 6.200,46.434 L5.670,46.820 ZM2.891,16.738 C3.273,15.944 3.694,15.161 4.144,14.408 L4.708,14.741 C4.267,15.477 3.855,16.245 3.482,17.018 L2.891,16.738 ZM2.942,42.294 C2.559,41.511 2.208,40.694 1.895,39.867 L2.506,39.638 C2.814,40.445 3.158,41.244 3.531,42.009 L2.942,42.294 ZM1.040,21.682 C1.271,20.842 1.544,19.998 1.853,19.168 L2.468,19.395 C2.167,20.208 1.899,21.035 1.673,21.855 L1.040,21.682 ZM0.764,26.939 L0.112,26.884 C0.189,26.005 0.307,25.125 0.460,24.263 L1.105,24.378 C0.954,25.218 0.840,26.081 0.764,26.939 ZM0.774,32.103 L0.122,32.162 C0.042,31.286 0.001,30.398 -0.000,29.521 L0.655,29.521 C0.656,30.378 0.696,31.245 0.774,32.103 ZM1.704,37.180 L1.072,37.354 C0.837,36.512 0.638,35.645 0.479,34.779 L1.124,34.661 C1.280,35.508 1.474,36.355 1.704,37.180 Z"/>
</svg>