<svg 
 xmlns="http://www.w3.org/2000/svg"
 xmlns:xlink="http://www.w3.org/1999/xlink"
 width="52px" height="44px">
<path fill-rule="evenodd"  fill="rgb(70, 70, 70)"
 d="M51.608,40.001 C51.355,40.205 51.027,40.277 50.716,40.207 L40.081,37.716 L26.805,43.887 C26.666,43.952 26.517,43.984 26.367,43.984 C26.230,43.984 26.092,43.958 25.962,43.902 L13.770,38.736 L1.422,43.624 C1.100,43.754 0.733,43.711 0.445,43.511 C0.158,43.313 -0.014,42.982 -0.014,42.629 L-0.014,7.105 C-0.014,6.665 0.253,6.268 0.657,6.109 L13.400,1.064 C13.654,0.963 13.936,0.966 14.187,1.074 L26.347,6.225 L39.531,0.097 C39.743,-0.000 39.980,-0.024 40.205,0.027 L51.188,2.600 C51.666,2.712 52.003,3.145 52.005,3.643 L52.005,39.166 C52.005,39.491 51.858,39.799 51.608,40.001 ZM49.900,4.492 L40.081,2.192 L26.805,8.363 C26.539,8.487 26.233,8.493 25.962,8.378 L13.770,3.213 L2.091,7.835 L2.091,41.065 L13.399,36.587 C13.522,36.538 13.652,36.515 13.781,36.515 C13.919,36.515 14.057,36.541 14.186,36.597 L26.346,41.749 L39.530,35.621 C39.741,35.522 39.979,35.501 40.204,35.551 L49.899,37.822 L49.900,37.822 L49.900,4.492 ZM42.504,14.774 L40.696,15.541 L41.452,17.380 C41.676,17.925 41.424,18.552 40.887,18.779 C40.755,18.836 40.617,18.862 40.481,18.862 C40.070,18.862 39.678,18.616 39.510,18.205 L38.754,16.367 L36.943,17.135 C36.810,17.192 36.672,17.217 36.537,17.217 C36.125,17.217 35.734,16.972 35.565,16.561 C35.341,16.016 35.594,15.390 36.130,15.162 L37.941,14.393 L37.185,12.555 C36.961,12.010 37.213,11.383 37.750,11.155 C38.284,10.929 38.903,11.184 39.127,11.729 L39.883,13.568 L41.692,12.801 C42.228,12.574 42.845,12.829 43.069,13.375 C43.294,13.920 43.041,14.546 42.504,14.774 ZM37.303,19.525 C37.809,19.815 37.989,20.466 37.704,20.982 C37.459,21.425 37.203,21.870 36.949,22.299 C36.753,22.634 36.404,22.819 36.046,22.819 C35.862,22.819 35.676,22.770 35.506,22.666 C35.008,22.363 34.846,21.707 35.144,21.200 C35.388,20.787 35.634,20.358 35.871,19.933 C36.154,19.417 36.795,19.234 37.303,19.525 ZM34.634,25.962 C33.639,27.302 32.684,28.352 31.772,29.111 C31.577,29.274 31.341,29.354 31.106,29.354 C30.801,29.354 30.499,29.220 30.292,28.962 C29.925,28.506 29.990,27.832 30.439,27.458 C31.221,26.807 32.061,25.882 32.933,24.705 L32.975,24.639 C33.297,24.150 33.952,24.017 34.435,24.347 C34.917,24.677 35.046,25.341 34.722,25.831 L34.634,25.962 ZM25.547,29.908 C25.329,29.908 25.110,29.841 24.921,29.699 C23.960,28.975 23.039,27.890 22.024,26.285 C21.711,25.788 21.853,25.127 22.342,24.807 C22.831,24.488 23.481,24.633 23.796,25.130 C24.668,26.510 25.425,27.417 26.175,27.981 C26.641,28.333 26.739,29.002 26.394,29.477 C26.186,29.759 25.869,29.908 25.547,29.908 ZM19.821,21.411 C19.471,21.411 19.128,21.235 18.930,20.912 C18.677,20.506 18.427,20.127 18.172,19.789 C17.588,19.009 17.231,19.093 16.928,19.153 C16.360,19.259 15.807,18.884 15.697,18.304 C15.589,17.724 15.962,17.164 16.534,17.053 C16.739,17.013 16.946,16.993 17.148,16.993 C17.865,16.993 18.914,17.253 19.844,18.491 C20.133,18.877 20.422,19.308 20.709,19.772 C21.019,20.273 20.872,20.932 20.380,21.246 C20.206,21.358 20.012,21.411 19.821,21.411 ZM13.294,22.459 C13.088,22.744 12.768,22.897 12.443,22.897 C12.228,22.897 12.010,22.831 11.823,22.692 C11.353,22.344 11.251,21.675 11.594,21.198 C11.901,20.772 12.220,20.355 12.548,19.960 C12.923,19.512 13.586,19.455 14.032,19.835 C14.475,20.216 14.529,20.890 14.154,21.342 C13.858,21.697 13.571,22.074 13.294,22.459 ZM10.248,27.621 C10.067,28.001 9.692,28.224 9.300,28.224 C9.146,28.224 8.991,28.188 8.843,28.117 C8.321,27.860 8.101,27.221 8.353,26.689 C8.353,26.689 8.629,26.110 9.098,25.239 C9.376,24.722 10.016,24.530 10.526,24.816 C11.035,25.100 11.222,25.749 10.944,26.266 C10.510,27.070 10.255,27.608 10.248,27.621 Z"/>
</svg>