<svg 
 xmlns="http://www.w3.org/2000/svg"
 xmlns:xlink="http://www.w3.org/1999/xlink"
 width="51px" height="40px">
<path fill-rule="evenodd"  fill="rgb(255, 255, 255)"
 d="M48.167,40.000 L5.667,40.000 L5.667,37.143 L48.167,37.143 L48.167,5.714 L51.000,5.714 L51.000,37.143 L51.000,40.000 L48.167,40.000 ZM-0.000,-0.000 L45.333,-0.000 L45.333,34.286 L-0.000,34.286 L-0.000,-0.000 ZM2.833,31.429 L42.500,31.429 L42.500,2.857 L2.833,2.857 L2.833,31.429 ZM13.225,24.284 C16.998,24.284 16.998,25.717 20.783,25.717 C24.557,25.717 26.446,20.000 32.112,20.000 C37.781,20.000 39.667,28.571 39.667,28.571 L5.667,28.571 C5.667,28.571 9.444,24.284 13.225,24.284 ZM12.750,17.143 C10.409,17.143 8.500,15.224 8.500,12.858 C8.500,10.488 10.409,8.571 12.750,8.571 C15.096,8.571 17.000,10.488 17.000,12.858 C17.000,15.223 15.098,17.143 12.750,17.143 Z"/>
</svg>