<svg xmlns="http://www.w3.org/2000/svg" width="15.469" height="15.469" viewBox="0 0 15.469 15.469">
  <metadata><?xpacket begin="﻿" id="W5M0MpCehiHzreSzNTczkc9d"?>
<x:xmpmeta xmlns:x="adobe:ns:meta/" x:xmptk="Adobe XMP Core 5.6-c142 79.160924, 2017/07/13-01:06:39        ">
   <rdf:RDF xmlns:rdf="http://www.w3.org/1999/02/22-rdf-syntax-ns#">
      <rdf:Description rdf:about=""/>
   </rdf:RDF>
</x:xmpmeta>
                                                                                                    
                                                                                                    
                                                                                                    
                                                                                                    
                                                                                                    
                                                                                                    
                                                                                                    
                                                                                                    
                                                                                                    
                                                                                                    
                                                                                                    
                                                                                                    
                                                                                                    
                                                                                                    
                                                                                                    
                                                                                                    
                                                                                                    
                                                                                                    
                                                                                                    
                                                                                                    
                           
<?xpacket end="w"?></metadata>
<defs>
    <style>
      .cls-1 {
        fill: #919191;
        fill-rule: evenodd;
      }
    </style>
  </defs>
  <path id="icon" class="cls-1" d="M939.807,45.222c1.388,1.381,3,2.7,3.626,2.063,0.9-.912,1.46-1.706,3.465-0.1s0.473,2.682-.4,3.566c-1.01,1.019-4.792.071-8.54-3.657s-4.724-7.511-3.713-8.531c0.875-.884,1.94-2.426,3.554-0.429s0.826,2.56-.077,3.472C937.089,42.24,938.418,43.84,939.807,45.222Zm2.013-6.59a0.892,0.892,0,0,0-.712.229,0.817,0.817,0,0,0,0,1.142,0.9,0.9,0,0,0,.453.229,3.9,3.9,0,0,1,3.214,3.221,0.908,0.908,0,0,0,.228.454,0.814,0.814,0,0,0,1.14,0,0.9,0.9,0,0,0,.228-0.714A5.514,5.514,0,0,0,941.82,38.632Zm3.929,0.626a5.707,5.707,0,0,1,1.956,4.651,0.916,0.916,0,0,0,.215.733,0.813,0.813,0,0,0,1.146,0,1.02,1.02,0,0,0,.238-0.515,7.271,7.271,0,0,0-2.412-6.016,7.241,7.241,0,0,0-6-2.417,1.009,1.009,0,0,0-.514.239,0.815,0.815,0,0,0,0,1.148,0.914,0.914,0,0,0,.732.215A5.683,5.683,0,0,1,945.749,39.258Z" transform="translate(-933.875 -35.656)"/>
</svg>
