<svg xmlns="http://www.w3.org/2000/svg" width="14.718" height="11.063" viewBox="0 0 14.718 11.063">
  <metadata><?xpacket begin="﻿" id="W5M0MpCehiHzreSzNTczkc9d"?>
<x:xmpmeta xmlns:x="adobe:ns:meta/" x:xmptk="Adobe XMP Core 5.6-c142 79.160924, 2017/07/13-01:06:39        ">
   <rdf:RDF xmlns:rdf="http://www.w3.org/1999/02/22-rdf-syntax-ns#">
      <rdf:Description rdf:about=""/>
   </rdf:RDF>
</x:xmpmeta>
                                                                                                    
                                                                                                    
                                                                                                    
                                                                                                    
                                                                                                    
                                                                                                    
                                                                                                    
                                                                                                    
                                                                                                    
                                                                                                    
                                                                                                    
                                                                                                    
                                                                                                    
                                                                                                    
                                                                                                    
                                                                                                    
                                                                                                    
                                                                                                    
                                                                                                    
                                                                                                    
                           
<?xpacket end="w"?></metadata>
<defs>
    <style>
      .cls-1 {
        fill: #919191;
        fill-rule: evenodd;
      }
    </style>
  </defs>
  <path id="mail" class="cls-1" d="M731.8,48.213a1.819,1.819,0,0,1-.237.885l-4.649-5.2,4.6-4.024a1.829,1.829,0,0,1,.287.978v7.362Zm-7.363-3.372,6.4-5.6a1.814,1.814,0,0,0-.877-0.232H718.912a1.808,1.808,0,0,0-.877.232Zm1.784-.339-1.481,1.3a0.46,0.46,0,0,1-.605,0l-1.482-1.3-4.708,5.268a1.818,1.818,0,0,0,.971.283h11.043a1.818,1.818,0,0,0,.971-0.283Zm-8.859-4.629a1.829,1.829,0,0,0-.287.978v7.362a1.819,1.819,0,0,0,.236.885l4.649-5.2Z" transform="translate(-717.063 -39)"/>
</svg>
