<svg 
 xmlns="http://www.w3.org/2000/svg"
 xmlns:xlink="http://www.w3.org/1999/xlink"
 width="21px" height="17px">
<path fill-rule="evenodd"  fill="rgb(128, 128, 128)"
 d="M13.573,9.237 L20.927,15.685 C20.660,15.941 20.300,16.100 19.904,16.100 L2.096,16.100 C1.698,16.100 1.337,15.943 1.070,15.688 L8.427,9.237 L11.000,11.540 L13.573,9.237 ZM11.000,10.020 L1.073,1.315 C1.340,1.058 1.700,0.900 2.096,0.900 L19.904,0.900 C20.302,0.900 20.663,1.056 20.930,1.312 L11.000,10.020 ZM21.000,14.000 L14.220,8.620 L21.000,3.000 L21.000,14.000 L21.000,14.000 ZM1.000,15.000 L1.000,3.000 L7.780,8.620 L0.600,14.862 L1.000,15.000 Z"/>
</svg>