<svg 
 xmlns="http://www.w3.org/2000/svg"
 xmlns:xlink="http://www.w3.org/1999/xlink"
 width="70px" height="70px">
<path fill-rule="evenodd"  fill="rgb(255, 255, 255)"
 d="M64.704,36.586 C64.732,36.061 64.747,35.532 64.747,35.000 C64.747,34.468 64.732,33.939 64.704,33.414 L69.997,33.414 L69.997,36.586 L64.704,36.586 ZM61.842,22.165 L66.726,20.142 L67.940,23.073 L63.052,25.098 C62.698,24.095 62.297,23.115 61.842,22.165 ZM35.000,61.248 C20.504,61.248 8.752,49.496 8.752,35.000 C8.752,20.504 20.504,8.752 35.000,8.752 C49.496,8.752 61.247,20.504 61.247,35.000 C61.247,49.496 49.496,61.248 35.000,61.248 ZM35.000,11.592 C22.093,11.592 11.592,22.093 11.592,35.000 C11.592,47.907 22.093,58.408 35.000,58.408 C47.907,58.408 58.408,47.907 58.408,35.000 C58.408,22.093 47.907,11.592 35.000,11.592 ZM54.881,12.876 L58.625,9.132 L60.868,11.375 L57.124,15.119 C56.416,14.332 55.668,13.584 54.881,12.876 ZM44.903,6.948 L46.927,2.060 L49.858,3.274 L47.835,8.158 C46.885,7.703 45.905,7.301 44.903,6.948 ZM33.414,5.296 L33.414,0.003 L36.586,0.003 L36.586,5.296 C36.061,5.268 35.532,5.253 35.000,5.253 C34.468,5.253 33.939,5.268 33.414,5.296 ZM20.142,3.274 L23.073,2.060 L25.097,6.948 C24.095,7.301 23.115,7.703 22.165,8.158 L20.142,3.274 ZM9.132,11.375 L11.375,9.132 L15.119,12.876 C14.332,13.584 13.584,14.332 12.876,15.119 L9.132,11.375 ZM2.060,46.927 L6.948,44.903 C7.302,45.905 7.703,46.885 8.158,47.835 L3.274,49.858 L2.060,46.927 ZM2.060,23.073 L3.274,20.142 L8.158,22.165 C7.703,23.115 7.302,24.095 6.948,25.098 L2.060,23.073 ZM5.253,35.000 C5.253,35.532 5.268,36.061 5.296,36.586 L0.003,36.586 L0.003,33.414 L5.296,33.414 C5.268,33.939 5.253,34.468 5.253,35.000 ZM15.119,57.124 L11.375,60.868 L9.132,58.625 L12.876,54.881 C13.584,55.667 14.332,56.416 15.119,57.124 ZM25.097,63.052 L23.073,67.940 L20.142,66.726 L22.165,61.842 C23.115,62.297 24.095,62.698 25.097,63.052 ZM36.586,64.704 L36.586,69.997 L33.414,69.997 L33.414,64.704 C33.939,64.732 34.468,64.747 35.000,64.747 C35.532,64.747 36.061,64.732 36.586,64.704 ZM49.858,66.726 L46.927,67.940 L44.903,63.052 C45.905,62.698 46.885,62.297 47.835,61.842 L49.858,66.726 ZM60.868,58.625 L58.625,60.868 L54.881,57.124 C55.668,56.416 56.416,55.667 57.124,54.881 L60.868,58.625 ZM67.940,46.927 L66.726,49.859 L61.842,47.835 C62.297,46.885 62.698,45.905 63.052,44.903 L67.940,46.927 Z"/>
</svg>