<svg 
 xmlns="http://www.w3.org/2000/svg"
 xmlns:xlink="http://www.w3.org/1999/xlink"
 width="66px" height="49px">
<defs>
<filter id="Filter_0">
    <feFlood flood-color="rgb(70, 70, 70)" flood-opacity="1" result="floodOut" />
    <feComposite operator="atop" in="floodOut" in2="SourceGraphic" result="compOut" />
    <feBlend mode="normal" in="compOut" in2="SourceGraphic" />
</filter>

</defs>
<g filter="url(#Filter_0)">
<path fill-rule="evenodd"  fill="rgb(0, 0, 0)"
 d="M57.204,18.162 C57.560,19.610 57.765,21.099 57.765,22.628 C57.765,34.433 46.667,44.278 32.056,46.392 C35.145,47.517 38.606,48.178 42.300,48.178 C45.777,48.178 49.064,47.599 52.026,46.592 C55.780,47.749 59.881,48.049 63.270,48.049 C61.507,46.138 60.284,44.267 59.411,42.619 C63.168,39.591 65.486,35.579 65.486,31.161 C65.486,25.937 62.258,21.281 57.204,18.162 ZM3.663,43.084 C4.018,43.688 4.710,44.063 5.460,44.063 L5.556,44.063 C7.698,43.970 11.960,42.684 16.471,40.098 C18.885,40.484 24.292,41.205 26.179,41.205 C40.425,41.205 51.579,32.251 51.579,20.813 C51.579,9.565 40.188,0.418 26.179,0.418 C12.169,0.418 0.788,9.562 0.788,20.810 C0.788,26.043 3.342,31.104 7.832,34.887 C6.824,37.105 5.487,39.198 3.856,41.119 C3.373,41.685 3.300,42.452 3.663,43.084 ZM4.839,20.810 C4.839,11.582 14.414,4.072 26.187,4.072 C37.961,4.072 47.537,11.582 47.537,20.810 C47.537,30.347 38.357,37.548 26.187,37.548 C24.587,37.548 18.221,36.708 16.471,36.377 C15.937,36.283 15.381,36.369 14.936,36.644 C13.198,37.683 11.562,38.470 10.137,39.048 C10.910,37.733 11.578,36.372 12.138,34.969 C12.424,34.240 12.177,33.426 11.521,32.940 C7.211,29.740 4.839,25.428 4.839,20.810 Z"/>
</g>
</svg>