<svg xmlns="http://www.w3.org/2000/svg" xmlns:xlink="http://www.w3.org/1999/xlink" version="1.1" x="0px" y="0px" viewBox="0 0 100 125" style="enable-background:new 0 0 100 100;" xml:space="preserve"><g><path d="M78,51.8l5.8,2L80,48.9c-0.5-0.7-1-1.2-1.4-1.7c-2.2-2.7-4.8-5.3-7.5-7.8l-0.9-0.8L69.2,39c-1.2,0.5-2.3,1-3.4,1.5v7.6   c0.1,0,0.2,0,0.3,0.1C70.2,49.3,74.2,50.5,78,51.8z"/><path d="M12.4,58.7c0,1,0.8,1.9,1.9,1.9s1.9-0.8,1.9-1.9c0-5.9,7.4-11.2,17.9-13.9v-3.9C21.1,43.9,12.4,50.6,12.4,58.7z"/><path d="M39.5,64.8v6.7c0.1,0,0.2,0.1,0.3,0.1l4.6,1.1l4.6,1.1l-2.3,1.3c1.4,0.1,2.9,0.1,4.4,0.1c3.1,0,6.2-0.2,9.1-0.7v-9.8   c2.2-1.3,3.6-3.7,3.6-6.4V39.6c0-4.1-3.4-7.5-7.5-7.5H43.3c-4.1,0-7.5,3.4-7.5,7.5v18.9C35.8,61.1,37.3,63.5,39.5,64.8z"/><path d="M39.5,81.8v1c0,4.1,3.4,7.5,7.5,7.5h5.9c4.1,0,7.5-3.4,7.5-7.5v-0.6c-2.9,0.4-6,0.6-9.1,0.6C47.2,82.8,43.2,82.4,39.5,81.8   z"/><circle cx="49.9" cy="19.1" r="9.3"/><path d="M85.8,59.7c-1,0-1.9,0.8-1.9,1.9c0,8.5-15,15.7-32.7,15.7c-3.6,0-7-0.3-10.4-0.8l3.2-1.8l-4.6-1.1   c-1.9-0.5-3.7-0.9-5.4-1.4h0c-4.1-1.1-8.2-2.3-11.9-3.6l-5.8-2l3.8,4.9c0.5,0.7,0.9,1.2,1.4,1.7c2.2,2.7,4.8,5.3,7.5,7.8l0.9,0.8   l1.1-0.4c1.6-0.7,3.2-1.3,4.7-2.1c4.8,1.2,10.1,1.8,15.6,1.8c20.5,0,36.5-8.5,36.5-19.4C87.6,60.5,86.8,59.7,85.8,59.7z"/></g><text x="0" y="115" fill="#000000" font-size="5px" font-weight="bold" font-family="'Helvetica Neue', Helvetica, Arial-Unicode, Arial, Sans-serif">Created by mikicon</text><text x="0" y="120" fill="#000000" font-size="5px" font-weight="bold" font-family="'Helvetica Neue', Helvetica, Arial-Unicode, Arial, Sans-serif">from the Noun Project</text></svg>